# AST/ASF file generated using VICON BodyLanguage
# -----------------------------------------------
:version 1.10
:name VICON
:units
  mass 1.0
  length 0.45
  angle deg
:documentation
   .ast/.asf automatically generated from VICON data using
   VICON BodyBuilder and BodyLanguage model FoxedUp or BRILLIANT.MOD
:root
   order TX TY TZ RX RY RZ
   axis XYZ
   position 0 0 0  
   orientation 0 0 0 
:bonedata
  begin
     id 1 
     name lhipjoint
     direction 0.575328 -0.747301 0.332475 
     length 2.40933 
     axis 0 0 0  XYZ
  end
  begin
     id 2 
     name lfemur
     direction 0.34202 -0.939693 0  
     length 7.31453  
     axis 0 0 20  XYZ
    dof rx ry rz
    limits (-160.0 20.0)
           (-70.0 70.0)
           (-60.0 70.0)
  end
  begin
     id 3 
     name ltibia
     direction 0.34202 -0.939693 0   
     length 7.82185   
     axis 0 0 20   XYZ
    dof rx
    limits (-10.0 170.0)
  end
  begin
     id 4 
     name lfoot
     direction 0.0795993 -0.218697 0.972541   
     length 2.19173   
     axis -90 7.62852e-016 20   XYZ
    dof rx rz
    limits (-45.0 90.0)
           (-70.0 20.0)
  end
  begin
     id 5 
     name ltoes
     direction 1.53537e-011 -4.21894e-011 1   
     length 1.10023   
     axis -90 7.62852e-016 20   XYZ
    dof rx
    limits (-90.0 20.0)
  end
  begin
     id 6 
     name rhipjoint
     direction -0.513884 -0.783789 0.348708   
     length 2.29716  
     axis 0 0 0  XYZ 
  end
  begin
     id 7 
     name rfemur
     direction -0.34202 -0.939693 0   
     length 7.59573   
     axis 0 0 -20   XYZ
    dof rx ry rz
    limits (-160.0 20.0)
           (-70.0 70.0)
           (-70.0 60.0)
  end
  begin
     id 8 
     name rtibia
     direction -0.34202 -0.939693 0   
     length 7.66402   
     axis 0 0 -20   XYZ
    dof rx
    limits (-10.0 170.0)
 end
 begin
     id 9 
     name rfoot
     direction -0.137793 -0.378584 0.915253   
     length 2.27056  
     axis -90 -7.62852e-016 -20   XYZ
    dof rx rz
    limits (-45.0 90.0)
           (-20.0 70.0)
  end
  begin
     id 10 
     name rtoes
     direction -1.53493e-011 -4.22159e-011 1   
     length 1.11766   
     axis -90 -7.62852e-016 -20   XYZ
    dof rx
    limits (-90.0 20.0)
  end
  begin
     id 11 
     name lowerback
     direction -0.00732775 0.998356 -0.05685   
     length 2.16513   
     axis 0 0 0   XYZ
    dof rx ry rz
    limits (-20.0 45.0)
           (-30.0 30.0)
           (-30.0 30.0)
  end
  begin
     id 12 
     name upperback
     direction 0.0218081 0.999627 -0.0164647   
     length 2.16755   
     axis 0 0 0   XYZ
    dof rx ry rz
    limits (-20.0 45.0)
           (-30.0 30.0)
           (-30.0 30.0)
  end
  begin
     id 13 
     name thorax
     direction 0.02365 0.999661 0.0108914   
     length 2.16932   
     axis 0 0 0   XYZ
    dof rx ry rz
    limits (-20.0 45.0)
           (-30.0 30.0)
           (-30.0 30.0)
  end
  begin
     id 14 
     name lowerneck
     direction -0.0523929 0.978385 0.200044   
     length 1.63877   
     axis 0 0 0   XYZ
    dof rx ry rz
    limits (-20.0 45.0)
           (-30.0 30.0)
           (-30.0 30.0)
  end
  begin
     id 15 
     name upperneck
     direction 0.0448674 0.981321 -0.187074   
     length 1.69014   
     axis 0 0 0   XYZ
    dof rx ry rz
    limits (-20.0 45.0)
           (-30.0 30.0)
           (-30.0 30.0)
  end
  begin
     id 16
     name head
     direction 0.0199089 0.996118 -0.0857429  
     length 1.70094  
     axis 0 0 0   XYZ
    dof rx ry rz
    limits (-20.0 45.0)
           (-30.0 30.0)
           (-30.0 30.0)
  end
  begin
     id 17 
     name lclavicle
     direction 0.940366 0.30191 -0.156722  
     length 3.37521  
     axis 0 0 0   XYZ
    dof ry rz
    limits (-20.0 10.0)
           (0.0 20.0)
  end
  begin
     id 18 
     name lhumerus
     direction 1 -4.4897e-011 -1.7911e-027   
     length 5.25287   
     axis 180 -30 -90   XYZ
    dof rx ry rz
    limits (-60.0 90.0)
           (-90.0 90.0)
           (-90.0 90.0)
  end
  begin
     id 19
     name lradius
     direction 1 -4.48951e-011 1.04424e-027   
     length 3.51014   
     axis 180 -30 -90   XYZ
    dof rx
    limits (-10.0 170.0)
  end
  begin
     id 20
     name lwrist
     direction 1 -4.48997e-011 -9.5942e-028   
     length 1.75507   
     axis 8.48502e-016 90 90   XYZ
    dof ry
    limits (-180.0 0.0)
 end
  begin
     id 21 
     name lhand
     direction 1 -4.48831e-011 -1.90777e-027   
     length 0.706179   
     axis 1.22306e-015 90 90   XYZ
    dof rx rz
    limits (-90.0 90.0)
           (-45.0 45.0)
  end
  begin
     id 22 
     name lfingers
     direction 1 -4.49108e-011 -3.85244e-027   
     length 0.569339   
     axis 2.44611e-015 90 90   XYZ
    dof rx
    limits (0.0 90.0)
  end
  begin
     id 23
     name lthumb
     direction 0.707107 -6.34953e-011 0.707107   
     length 0.817461   
     axis -90 45 -1.62303e-014   XYZ
    dof rx rz
    limits (-45.0 45.0)
           (-45.0 45.0)
  end
  begin
     id 24 
     name rclavicle
     direction -0.905329 0.382405 -0.184787   
     length 3.30787  
     axis 0 0 0   XYZ 
    dof ry rz
    limits (-10.0 20.0)
           (-20.0 0.0)
  end
  begin
     id 25 
     name rhumerus
     direction -1 -4.48953e-011 -9.15316e-029  
     length 5.28721   
     axis 180 30 90   XYZ
    dof rx ry rz
    limits (-90.0 60.0)
           (-90.0 90.0)
           (-90.0 90.0)
  end
  begin
     id 26 
     name rradius
     direction -1 -4.48987e-011 9.37824e-028   
     length 3.50544   
     axis 180 30 90   XYZ
    dof rx
    limits (-10.0 170.0)
  end
  begin
     id 27 
     name rwrist
     direction -1 -4.48967e-011 -9.58414e-028   
     length 1.75272   
     axis 8.48502e-016 -90 -90   XYZ
    dof ry
    limits (-180.0 0.0)
  end
  begin
     id 28
     name rhand
     direction -1 -4.48904e-011 -1.91266e-027   
     length 0.884996   
     axis 1.22306e-015 -90 -90   XYZ
    dof rx rz
    limits (-90.0 90.0)
           (-45.0 45.0)
  end
  begin
     id 29
     name rfingers
     direction -1 -4.4909e-011 -3.85015e-027   
     length 0.713507   
     axis 2.44611e-015 -90 -90   XYZ
    dof rx
    limits (0.0 90.0)
  end
  begin
     id 30
     name rthumb
     direction -0.707107 -6.34853e-011 0.707107   
     length 1.02446   
     axis -90 -45 1.62303e-014   XYZ
    dof rx rz
    limits (-45.0 45.0)
           (-45.0 45.0)
  end
:hierarchy
  begin
    root lhipjoint rhipjoint lowerback
    lhipjoint lfemur
    lfemur ltibia
    ltibia lfoot
    lfoot ltoes
    rhipjoint rfemur
    rfemur rtibia
    rtibia rfoot
    rfoot rtoes
    lowerback upperback
    upperback thorax
    thorax lowerneck lclavicle rclavicle
    lowerneck upperneck
    upperneck head
    lclavicle lhumerus
    lhumerus lradius
    lradius lwrist
    lwrist lhand lthumb
    lhand lfingers
    rclavicle rhumerus
    rhumerus rradius
    rradius rwrist
    rwrist rhand rthumb
    rhand rfingers
  end

#!OML:ASF F:\twosubjects\two\Thursday\Session 1\justin.ASF
:FULLY-SPECIFIED
:DEGREES
79
root 7.96799 14.9096 -12.3739 18.5962 19.1451 7.04232
lowerback 36.7575 1.19704 4.87716
upperback 6.66652 4.1607 4.9128
thorax -10.8948 1.83021 1.01156
lowerneck -16.7206 -10.7916 -16.8115
upperneck -0.111041 -11.4475 7.54371
head 3.91309 -5.40766 3.91272
rclavicle 1.59028e-014 -3.18055e-015
rhumerus 45.4993 -1.37474 -85.9993
rradius 110.11
rwrist -54.1428
rhand -9.73791 -5.24635
rfingers 7.12502
rthumb 16.236 -34.5865
lclavicle 1.59028e-014 -3.18055e-015
lhumerus 21.3544 -45.4215 79.636
lradius 75.3565
lwrist -27.7077
lhand -19.8808 68.2375
lfingers 7.12502
lthumb 6.4549 -98.1191
rfemur -58.178 -21.975 -4.7391
rtibia 62.9058
rfoot -13.0638 -4.04884
rtoes -34.3059
lfemur -48.938 10.8677 -0.88574
ltibia 52.4248
lfoot -20.5161 -11.7997
ltoes -25.7523
80
root 7.97992 14.8875 -12.366 18.9107 18.9304 7.28793
lowerback 36.6668 1.22206 4.83612
upperback 6.6018 4.17101 4.90685
thorax -10.9379 1.83373 1.0229
lowerneck -16.7672 -10.8445 -17.1475
upperneck -0.0740852 -11.4609 7.82889
head 3.97003 -5.40166 4.04557
rclavicle -3.65764e-014 6.36111e-015
rhumerus 45.6745 -1.42236 -85.8608
rradius 110.387
rwrist -54.5106
rhand -11.1464 -4.17975
rfingers 7.12502
rthumb 14.8794 -33.6254
lclavicle -3.65764e-014 6.36111e-015
lhumerus 20.7923 -45.2832 80.0875
lradius 75.7829
lwrist -27.3047
lhand -19.7091 68.0993
lfingers 7.12502
lthumb 6.62062 -97.9758
rfemur -58.5895 -22.0954 -4.93585
rtibia 63.0467
rfoot -13.0314 -4.04149
rtoes -34.9957
lfemur -49.0375 10.9708 -0.97091
ltibia 53.4042
lfoot -20.8789 -11.8263
ltoes -30.3719
81
root 7.9928 14.8896 -12.3622 19.1885 18.8665 7.6084
lowerback 36.6837 1.18556 4.84121
upperback 6.53642 4.13313 4.90455
thorax -11.0176 1.81369 1.03153
lowerneck -16.815 -10.8835 -17.4121
upperneck -0.136601 -11.4662 8.09422
head 3.99025 -5.39012 4.16562
rclavicle 4.6118e-014 -1.59028e-015
rhumerus 45.8725 -1.65817 -85.8381
rradius 110.485
rwrist -53.2767
rhand -11.2181 -3.69141
rfingers 7.12502
rthumb 14.8104 -33.1422
lclavicle 4.6118e-014 -1.59028e-015
lhumerus 20.527 -45.216 80.2445
lradius 76.145
lwrist -27.0558
lhand -18.9485 68.0889
lfingers 7.12502
lthumb 7.35484 -97.941
rfemur -58.7192 -22.1229 -5.3344
rtibia 63.0959
rfoot -13.0051 -4.10158
rtoes -34.6066
lfemur -49.1524 10.9066 -1.15198
ltibia 54.6036
lfoot -20.433 -12.5329
ltoes -29.771
82
root 8.00768 14.9015 -12.3575 19.4385 18.7682 7.79031
lowerback 36.5698 1.14454 4.77228
upperback 6.4871 4.05168 4.91067
thorax -11.0377 1.77824 1.10811
lowerneck -16.7176 -10.7222 -17.098
upperneck -0.388838 -11.3121 7.85473
head 3.84689 -5.32106 4.07464
rclavicle 1.74931e-014 -3.18055e-015
rhumerus 46.2239 -1.80548 -86.2008
rradius 110.224
rwrist -51.2825
rhand -10.5164 -3.39724
rfingers 7.12502
rthumb 15.4863 -32.797
lclavicle 1.74931e-014 -3.18055e-015
lhumerus 20.3984 -45.1351 80.0253
lradius 76.3833
lwrist -26.999
lhand -17.6325 67.7292
lfingers 7.12502
lthumb 8.62498 -97.533
rfemur -58.8329 -21.9811 -5.58626
rtibia 63.062
rfoot -12.9094 -4.24738
rtoes -34.6668
lfemur -49.1985 11.0274 -1.23937
ltibia 55.9223
lfoot -19.975 -12.8867
ltoes -29.2105
83
root 8.03562 14.8963 -12.3607 19.7334 18.4528 7.99571
lowerback 36.3835 1.17365 4.5831
upperback 6.43868 4.00373 4.90674
thorax -11.0384 1.7613 1.22429
lowerneck -16.6198 -10.5644 -16.6684
upperneck -0.604172 -11.1718 7.36477
head 3.69412 -5.27067 3.88606
rclavicle -8.42847e-014 -3.02153e-014
rhumerus 46.6062 -1.86499 -86.4656
rradius 110.094
rwrist -50.8239
rhand -10.1905 -3.08301
rfingers 7.12502
rthumb 15.8002 -32.4582
lclavicle -8.42847e-014 -3.02153e-014
lhumerus 20.0643 -44.9379 80.0775
lradius 76.6581
lwrist -27.1597
lhand -16.1643 67.6808
lfingers 7.12502
lthumb 10.0416 -97.4212
rfemur -59.1383 -21.9089 -5.83233
rtibia 62.9693
rfoot -12.7713 -4.34397
rtoes -34.8246
lfemur -49.2339 11.262 -1.39126
ltibia 57.3267
lfoot -19.567 -12.674
ltoes -29.6033
84
root 8.0781 14.8855 -12.3713 19.9138 18.217 8.03567
lowerback 36.2976 1.14365 4.76517
upperback 6.42371 4.03672 4.98191
thorax -11.0165 1.77104 1.19861
lowerneck -16.5013 -10.5706 -16.5818
upperneck -0.93891 -11.1982 7.11261
head 3.55261 -5.28968 3.8048
rclavicle -1.27222e-014 -5.40694e-014
rhumerus 46.9568 -2.13156 -86.3751
rradius 110.311
rwrist -51.8557
rhand -10.2253 -3.65846
rfingers 7.12502
rthumb 15.7667 -33.0363
lclavicle -1.27222e-014 -5.40694e-014
lhumerus 19.9544 -44.9361 80.1926
lradius 76.9074
lwrist -27.1191
lhand -16.6883 67.7319
lfingers 7.12502
lthumb 9.53605 -97.4961
rfemur -59.2852 -21.8322 -6.09415
rtibia 62.8135
rfoot -12.71 -4.33352
rtoes -33.6923
lfemur -49.2724 11.3079 -1.38272
ltibia 58.7164
lfoot -18.8147 -12.9622
ltoes -28.5256
85
root 8.12233 14.8728 -12.3731 20.2053 17.7885 8.23144
lowerback 36.0613 1.25467 4.64065
upperback 6.45166 4.1078 5.0012
thorax -10.9092 1.80928 1.26069
lowerneck -16.4287 -10.5914 -16.7344
upperneck -1.18306 -11.2159 7.29635
head 3.48792 -5.28662 3.89052
rclavicle -1.90833e-014 1.90833e-014
rhumerus 47.3417 -2.39284 -86.2261
rradius 110.544
rwrist -53.0636
rhand -10.2933 -4.85996
rfingers 7.12502
rthumb 15.7012 -34.243
lclavicle -1.90833e-014 1.90833e-014
lhumerus 20.1247 -45.147 80.0161
lradius 77.1328
lwrist -26.6427
lhand -17.1243 68.2903
lfingers 7.12502
lthumb 9.11543 -98.0734
rfemur -59.5591 -21.7094 -6.52555
rtibia 62.6491
rfoot -12.7266 -4.20496
rtoes -33.2678
lfemur -49.2614 11.423 -1.63334
ltibia 60.0492
lfoot -18.4033 -13.3278
ltoes -28.5897
86
root 8.14702 14.8781 -12.3621 20.31 17.2105 8.40359
lowerback 35.9026 1.57259 4.09271
upperback 6.54042 4.29275 5.08999
thorax -10.8041 1.91056 1.57186
lowerneck -16.7984 -10.5991 -16.7715
upperneck -0.964611 -11.1507 7.23477
head 3.59943 -5.25451 3.86505
rclavicle -2.22639e-014 1.59028e-015
rhumerus 47.7606 -2.6056 -85.9856
rradius 110.427
rwrist -53.7268
rhand -10.1833 -5.22795
rfingers 7.12502
rthumb 15.8071 -34.6026
lclavicle -2.22639e-014 1.59028e-015
lhumerus 20.2181 -45.26 79.8333
lradius 77.4928
lwrist -26.2021
lhand -16.493 68.9642
lfingers 7.12502
lthumb 9.72453 -98.7197
rfemur -59.711 -21.2344 -6.87025
rtibia 62.5116
rfoot -12.7435 -4.3572
rtoes -33.5247
lfemur -48.878 11.7847 -1.80488
ltibia 61.2656
lfoot -18.1315 -13.8046
ltoes -29.3315
87
root 8.17952 14.8805 -12.3693 20.0936 16.7731 7.90244
lowerback 36.0204 1.69032 4.21182
upperback 6.56304 4.50999 5.28182
thorax -10.8351 2.00235 1.62644
lowerneck -17.1314 -10.4986 -16.3827
upperneck -0.850469 -11.0075 6.73168
head 3.61417 -5.20217 3.65465
rclavicle 7.31528e-014 2.70347e-014
rhumerus 48.1193 -2.63515 -85.7128
rradius 110.131
rwrist -53.9417
rhand -9.79622 -5.02916
rfingers 7.12502
rthumb 16.1799 -34.3739
lclavicle 7.31528e-014 2.70347e-014
lhumerus 20.1675 -45.1922 79.6593
lradius 77.8999
lwrist -25.8361
lhand -17.1678 68.955
lfingers 7.12502
lthumb 9.07341 -98.7399
rfemur -59.8332 -20.5339 -6.58244
rtibia 62.4137
rfoot -12.6013 -4.53641
rtoes -33.6378
lfemur -48.4459 12.2179 -1.19777
ltibia 62.3753
lfoot -17.3525 -14.9394
ltoes -28.3467
